<?xml version="1.0" standalone="no"?>
<!DOCTYPE svg PUBLIC "-//W3C//DTD SVG 20010904//EN"
 "http://www.w3.org/TR/2001/REC-SVG-20010904/DTD/svg10.dtd">
<svg version="1.0" xmlns="http://www.w3.org/2000/svg"
 width="300.000000pt" height="207.000000pt" viewBox="0 0 300.000000 207.000000"
 preserveAspectRatio="xMidYMid meet">
<metadata>
Created by potrace 1.10, written by Peter Selinger 2001-2011
</metadata>
<g transform="translate(0.000000,207.000000) scale(0.100000,-0.100000)"
fill="#000000" stroke="none">
<path d="M824 1763 c-33 -23 -34 -49 -34 -793 0 -785 0 -786 45 -804 9 -3 313
-6 676 -6 l660 0 24 25 25 24 0 501 c0 428 -2 506 -15 537 -37 88 -88 113
-230 113 -114 0 -141 8 -184 54 -21 22 -25 40 -31 120 -10 121 -36 173 -107
208 -48 23 -52 23 -433 26 -212 1 -390 -1 -396 -5z m824 -40 c57 -27 76 -66
83 -168 7 -103 23 -142 76 -182 34 -26 44 -28 162 -33 135 -7 155 -13 195 -61
l26 -31 0 -522 c0 -393 -3 -525 -12 -534 -17 -17 -1329 -17 -1346 0 -9 9 -12
196 -12 778 0 422 3 770 8 775 4 4 183 4 397 0 321 -5 396 -9 423 -22z"/>
</g>
</svg>
